<svg xmlns="http://www.w3.org/2000/svg" width="32" height="32" viewBox="0 0 256 256">
  <style>
    @media (prefers-color-scheme: dark) {
      g {
        fill: white;
      }
    }
  </style>
  <g fill="currentColor">
    <path
      d="M208 192a32 32 0 0 1-32 32H80a32 32 0 0 1-32-32a32 32 0 0 1 32-32h96a32 32 0 0 1 32 32M64 104a32 32 0 0 1 32-32H63.22a48 48 0 0 0-47.07 38.53A8 8 0 0 0 24 120h40Zm175.85 6.53A48 48 0 0 0 192.78 72H160a32 32 0 0 1 32 32v16h40a8 8 0 0 0 7.85-9.47"
      opacity=".2" />
    <path
      d="M104 192a8 8 0 0 1-8 8H80a8 8 0 0 1 0-16h16a8 8 0 0 1 8 8m72-8h-16a8 8 0 0 0 0 16h16a8 8 0 0 0 0-16m-76-72a12 12 0 1 0 12 12a12 12 0 0 0-12-12m56 0a12 12 0 1 0 12 12a12 12 0 0 0-12-12m88.39 10.12A16 16 0 0 1 232 128h-32v32a40 40 0 0 1-24 72H80a40 40 0 0 1-24-72v-32H24a16 16 0 0 1-15.69-19a56.13 56.13 0 0 1 54.91-45h1.64A55.83 55.83 0 0 1 48 24a8 8 0 0 1 16 0a40 40 0 0 0 40 40h48a40 40 0 0 0 40-40a8 8 0 0 1 16 0a55.83 55.83 0 0 1-16.86 40h1.64a56.13 56.13 0 0 1 54.91 45a15.82 15.82 0 0 1-3.3 13.12M56 112v-8a39.8 39.8 0 0 1 8-24h-.8A40.09 40.09 0 0 0 24 112Zm144 80a24 24 0 0 0-24-24H80a24 24 0 0 0 0 48h96a24 24 0 0 0 24-24m-16-39.2V104a24 24 0 0 0-24-24H96a24 24 0 0 0-24 24v48.8a40.6 40.6 0 0 1 8-.8h96a40.6 40.6 0 0 1 8 .8m48-40.8a40.08 40.08 0 0 0-39.2-32h-.8a39.8 39.8 0 0 1 8 24v8Z" />
  </g>
</svg>
